HIERARCHY
ROOT Hips
{
    OFFSET 0.000000 0.000000 0.000000
    CHANNELS 6 Xposition Yposition Zposition Zrotation Xrotation Yrotation
    JOINT Spine
    {
        OFFSET -0.000000 7.790525 0.000000
        CHANNELS 3 Zrotation Xrotation Yrotation
        JOINT Spine1
        {
            OFFSET -0.000000 20.430923 0.000000
            CHANNELS 3 Zrotation Xrotation Yrotation
            JOINT Neck
            {
                OFFSET -0.000000 22.331051 0.000000
                CHANNELS 3 Zrotation Xrotation Yrotation
                JOINT Head
                {
                    OFFSET -0.000000 14.725992 1.900128
                    CHANNELS 3 Zrotation Xrotation Yrotation
                    End Site
                    {
                        OFFSET -0.000000 19.001280 0.000000
                    }
                }
            }
            JOINT LeftShoulder
            {
                OFFSET 3.812537 19.294388 -0.177115
                CHANNELS 3 Zrotation Xrotation Yrotation
                JOINT LeftArm
                {
                    OFFSET 9.162892 0.000000 0.000000
                    CHANNELS 3 Zrotation Xrotation Yrotation
                    JOINT LeftForeArm
                    {
                        OFFSET 30.063545 0.000000 0.000000
                        CHANNELS 3 Zrotation Xrotation Yrotation
                        JOINT LeftHand
                        {
                            OFFSET 28.325521 0.000000 0.000000
                            CHANNELS 3 Zrotation Xrotation Yrotation
                            End Site
                            {
                                OFFSET 14.250961 0.000000 0.000000
                            }
                        }
                    }
                }
            }
            JOINT RightShoulder
            {
                OFFSET -3.786349 19.294388 -0.177115
                CHANNELS 3 Zrotation Xrotation Yrotation
                JOINT RightArm
                {
                    OFFSET -9.162892 0.000000 0.000000
                    CHANNELS 3 Zrotation Xrotation Yrotation
                    JOINT RightForeArm
                    {
                        OFFSET -30.063545 0.000000 0.000000
                        CHANNELS 3 Zrotation Xrotation Yrotation
                        JOINT RightHand
                        {
                            OFFSET -28.325521 0.000000 0.000000
                            CHANNELS 3 Zrotation Xrotation Yrotation
                            End Site
                            {
                                OFFSET -14.250961 0.000000 0.000000
                            }
                        }
                    }
                }
            }
        }
    }
    JOINT LeftUpLeg
    {
        OFFSET 9.500640 0.000000 0.000000
        CHANNELS 3 Zrotation Xrotation Yrotation
        JOINT LeftLeg
        {
            OFFSET -0.000000 -41.640518 0.000000
            CHANNELS 3 Zrotation Xrotation Yrotation
            JOINT LeftFoot
            {
                OFFSET -0.000000 -37.182968 0.000000
                CHANNELS 3 Zrotation Xrotation Yrotation
                JOINT LeftToeBase
                {
                    OFFSET -0.000000 -6.175416 14.250961
                    CHANNELS 3 Zrotation Xrotation Yrotation
                    End Site
                    {
                        OFFSET -0.000000 0.000000 3.800256
                    }
                }
            }
        }
    }
    JOINT RightUpLeg
    {
        OFFSET -9.500640 0.000000 0.000000
        CHANNELS 3 Zrotation Xrotation Yrotation
        JOINT RightLeg
        {
            OFFSET -0.000000 -41.640518 0.000000
            CHANNELS 3 Zrotation Xrotation Yrotation
            JOINT RightFoot
            {
                OFFSET -0.000000 -37.182968 0.000000
                CHANNELS 3 Zrotation Xrotation Yrotation
                JOINT RightToeBase
                {
                    OFFSET -0.000000 -6.175416 14.250961
                    CHANNELS 3 Zrotation Xrotation Yrotation
                    End Site
                    {
                        OFFSET -0.000000 0.000000 3.800256
                    }
                }
            }
        }
    }
}
MOTION
Frames:    4
Frame Time:    0.010000
40.171005    91.579544    72.149948    -8.760737    -1.968356    10.765954    -6.562439    -3.705443    -6.733790    6.187143    -0.023721    -2.170404    4.096332    19.618404    0.151712    1.037308    -5.842226    1.326272    0.696467    5.329069    -2.391999    -38.781136    74.282494    -37.604298    44.991024    -43.337116    -24.194448    -30.223877    -33.790421    -7.550351    -0.081240    5.977951    -10.682337    58.952106    52.996185    -14.506641    2.740067    -38.416328    97.245216    77.232140    -23.213682    25.457067    5.174726    0.845652    5.687696    -2.015821    1.649316    -0.939699    -1.606219    -2.466768    2.890499    0.000000    0.000000    0.000000    -2.657510    -15.762199    -2.288771    7.542640    33.030174    -13.405542    18.855465    -3.403031    -0.706545    0.000000    0.000000    0.000000    
40.254829    91.450180    72.428581    -8.154805    -1.858427    11.459740    -6.593144    -3.996520    -6.518976    6.389205    -0.186015    -2.083606    3.532516    18.969213    -0.006752    0.747854    -4.948841    0.986991    0.256551    5.379989    -2.271160    -38.873489    73.859650    -36.915054    43.288208    -42.805073    -25.282452    -29.943575    -33.239662    -7.269004    -0.777662    5.428324    -11.560073    61.234955    53.494560    -15.896585    2.987025    -37.799793    96.360802    76.873795    -23.415108    24.715483    4.548895    0.812890    5.145627    -1.990242    1.913784    -0.766465    -0.982793    -2.584641    2.182902    0.000000    0.000000    0.000000    -2.399874    -13.163869    -0.068242    7.908364    27.947153    -15.161935    20.071154    -2.669240    -0.998489    0.000000    0.000000    0.000000    
40.409378    91.307358    72.710213    -7.470982    -1.625460    12.264925    -6.385141    -4.703903    -6.576139    5.980855    -0.061102    -2.099333    3.041344    18.883444    -0.022313    0.562864    -4.660315    0.835966    0.057298    5.329020    -2.179819    -40.993736    72.736191    -34.217548    40.590919    -42.080124    -27.216200    -29.397163    -32.509102    -6.752275    -0.827552    5.672459    -11.451800    63.077419    53.396805    -16.807634    2.719622    -37.930374    95.069908    76.841446    -23.427967    24.477121    3.760265    0.703704    4.275934    -1.973504    2.103813    -1.049480    -0.751809    -2.802611    2.476091    0.000000    0.000000    0.000000    -2.392874    -10.763418    1.567892    7.772379    23.217670    -16.171066    21.094154    -1.674384    -1.546442    0.000000    0.000000    0.000000    
40.520760    91.172752    72.987511    -6.836290    -1.488343    12.917603    -6.140397    -5.335787    -6.595451    5.648165    0.051439    -2.103836    2.643768    19.146975    -0.216662    0.031990    -4.712752    0.569501    -0.285406    5.359025    -1.990545    -42.071316    72.186256    -32.457790    39.045273    -41.533203    -28.164309    -29.123343    -32.087109    -6.176841    -0.835157    6.313389    -10.997154    64.292419    52.149872    -17.154179    3.388631    -36.956249    94.462807    74.456650    -25.194349    22.485565    3.096883    1.040949    1.033035    -2.065531    1.508388    2.289283    -0.564776    -2.649886    1.503809    0.000000    0.000000    0.000000    -2.264577    -8.522822    2.935373    7.257682    19.205467    -16.969196    21.372337    -0.388020    -1.575150    0.000000    0.000000    0.000000    
